<svg xmlns="http://www.w3.org/2000/svg" xmlns:xlink="http://www.w3.org/1999/xlink" width="500" zoomAndPan="magnify" viewBox="0 0 375 374.999991" height="500" preserveAspectRatio="xMidYMid meet" version="1.0"><defs><filter x="0%" y="0%" width="100%" height="100%" id="47cf867cb0"><feColorMatrix values="0 0 0 0 1 0 0 0 0 1 0 0 0 0 1 0 0 0 1 0" color-interpolation-filters="sRGB"/></filter><mask id="71de517a7a"><g filter="url(#47cf867cb0)"><rect x="-37.5" width="450" fill="#000000" y="-37.499999" height="449.999989" fill-opacity="0.12"/></g></mask><clipPath id="f5340d40e2"><path d="M 0 0 L 375 0 L 375 375 L 0 375 Z M 0 0 " clip-rule="nonzero"/></clipPath><clipPath id="5e217a06be"><path d="M 17.25 0 L 357.75 0 C 362.324219 0 366.710938 1.816406 369.949219 5.050781 C 373.183594 8.289062 375 12.675781 375 17.25 L 375 357.75 C 375 362.324219 373.183594 366.710938 369.949219 369.949219 C 366.710938 373.183594 362.324219 375 357.75 375 L 17.25 375 C 12.675781 375 8.289062 373.183594 5.050781 369.949219 C 1.816406 366.710938 0 362.324219 0 357.75 L 0 17.25 C 0 12.675781 1.816406 8.289062 5.050781 5.050781 C 8.289062 1.816406 12.675781 0 17.25 0 Z M 17.25 0 " clip-rule="nonzero"/></clipPath><clipPath id="216b91e745"><rect x="0" width="375" y="0" height="375"/></clipPath><mask id="bf0e91b2e6"><g filter="url(#47cf867cb0)"><rect x="-37.5" width="450" fill="#000000" y="-37.499999" height="449.999989" fill-opacity="0.19"/></g></mask><clipPath id="99f541cdde"><path d="M 0.953125 0.65625 L 343.703125 0.65625 L 343.703125 346.40625 L 0.953125 346.40625 Z M 0.953125 0.65625 " clip-rule="nonzero"/></clipPath><clipPath id="c0f6bbcf04"><rect x="0" width="345" y="0" height="347"/></clipPath></defs><g mask="url(#71de517a7a)"><g transform="matrix(1, 0, 0, 1, 0, 0)"><g clip-path="url(#216b91e745)"><g clip-path="url(#f5340d40e2)"><g clip-path="url(#5e217a06be)"><rect x="-82.5" width="540" fill="#003680" height="539.999987" y="-82.499998" fill-opacity="1"/></g></g></g></g></g><g mask="url(#bf0e91b2e6)"><g transform="matrix(1, 0, 0, 1, 15, 14)"><g clip-path="url(#c0f6bbcf04)"><g clip-path="url(#99f541cdde)"><path fill="#000000" d="M 31.332031 127.617188 C 31.332031 130.4375 33.613281 132.722656 36.429688 132.722656 C 39.242188 132.722656 41.527344 130.4375 41.527344 127.617188 C 41.527344 124.800781 39.242188 122.515625 36.429688 122.515625 C 33.613281 122.515625 31.332031 124.800781 31.332031 127.617188 Z M 31.332031 97.203125 C 31.332031 100.019531 33.613281 102.304688 36.429688 102.304688 C 39.242188 102.304688 41.527344 100.019531 41.527344 97.203125 C 41.527344 94.382812 39.242188 92.097656 36.429688 92.097656 C 33.613281 92.097656 31.332031 94.382812 31.332031 97.203125 Z M 31.332031 158.035156 C 31.332031 160.855469 33.613281 163.136719 36.429688 163.136719 C 39.242188 163.136719 41.527344 160.855469 41.527344 158.035156 C 41.527344 155.21875 39.242188 152.933594 36.429688 152.933594 C 33.613281 152.933594 31.332031 155.21875 31.332031 158.035156 Z M 61.710938 97.203125 C 61.710938 100.019531 63.996094 102.304688 66.808594 102.304688 C 69.625 102.304688 71.90625 100.019531 71.90625 97.203125 C 71.90625 94.382812 69.625 92.097656 66.808594 92.097656 C 63.996094 92.097656 61.710938 94.382812 61.710938 97.203125 Z M 0.953125 127.617188 C 0.953125 130.4375 3.234375 132.722656 6.050781 132.722656 C 8.863281 132.722656 11.144531 130.4375 11.144531 127.617188 C 11.144531 124.800781 8.863281 122.515625 6.050781 122.515625 C 3.234375 122.515625 0.953125 124.800781 0.953125 127.617188 Z M 0.953125 158.035156 C 0.953125 160.855469 3.234375 163.136719 6.050781 163.136719 C 8.863281 163.136719 11.144531 160.855469 11.144531 158.035156 C 11.144531 155.21875 8.863281 152.933594 6.050781 152.933594 C 3.234375 152.933594 0.953125 155.21875 0.953125 158.035156 Z M 61.710938 127.617188 C 61.710938 130.4375 63.996094 132.722656 66.808594 132.722656 C 69.625 132.722656 71.90625 130.4375 71.90625 127.617188 C 71.90625 124.800781 69.625 122.515625 66.808594 122.515625 C 63.996094 122.515625 61.710938 124.800781 61.710938 127.617188 Z M 0.953125 66.785156 C 0.953125 69.605469 3.234375 71.890625 6.050781 71.890625 C 8.863281 71.890625 11.144531 69.605469 11.144531 66.785156 C 11.144531 63.96875 8.863281 61.683594 6.050781 61.683594 C 3.234375 61.683594 0.953125 63.96875 0.953125 66.785156 Z M 0.953125 97.203125 C 0.953125 100.019531 3.234375 102.304688 6.050781 102.304688 C 8.863281 102.304688 11.144531 100.019531 11.144531 97.203125 C 11.144531 94.382812 8.863281 92.097656 6.050781 92.097656 C 3.234375 92.097656 0.953125 94.382812 0.953125 97.203125 Z M 61.710938 66.785156 C 61.710938 69.605469 63.996094 71.890625 66.808594 71.890625 C 69.625 71.890625 71.90625 69.605469 71.90625 66.785156 C 71.90625 63.96875 69.625 61.683594 66.808594 61.683594 C 63.996094 61.683594 61.710938 63.96875 61.710938 66.785156 Z M 31.332031 66.785156 C 31.332031 69.605469 33.613281 71.890625 36.429688 71.890625 C 39.242188 71.890625 41.527344 69.605469 41.527344 66.785156 C 41.527344 63.96875 39.242188 61.683594 36.429688 61.683594 C 33.613281 61.683594 31.332031 63.96875 31.332031 66.785156 Z M 61.710938 158.035156 C 61.710938 160.855469 63.996094 163.136719 66.808594 163.136719 C 69.625 163.136719 71.90625 160.855469 71.90625 158.035156 C 71.90625 155.21875 69.625 152.933594 66.808594 152.933594 C 63.996094 152.933594 61.710938 155.21875 61.710938 158.035156 Z M 61.710938 36.371094 C 61.710938 39.1875 63.996094 41.472656 66.808594 41.472656 C 69.625 41.472656 71.90625 39.1875 71.90625 36.371094 C 71.90625 33.550781 69.625 31.265625 66.808594 31.265625 C 63.996094 31.265625 61.710938 33.550781 61.710938 36.371094 Z M 31.332031 188.453125 C 31.332031 191.269531 33.613281 193.554688 36.429688 193.554688 C 39.242188 193.554688 41.527344 191.269531 41.527344 188.453125 C 41.527344 185.632812 39.242188 183.347656 36.429688 183.347656 C 33.613281 183.347656 31.332031 185.632812 31.332031 188.453125 Z M 0.953125 188.453125 C 0.953125 191.269531 3.234375 193.554688 6.050781 193.554688 C 8.863281 193.554688 11.144531 191.269531 11.144531 188.453125 C 11.144531 185.632812 8.863281 183.347656 6.050781 183.347656 C 3.234375 183.347656 0.953125 185.632812 0.953125 188.453125 Z M 61.710938 188.453125 C 61.710938 191.269531 63.996094 193.554688 66.808594 193.554688 C 69.625 193.554688 71.90625 191.269531 71.90625 188.453125 C 71.90625 185.632812 69.625 183.347656 66.808594 183.347656 C 63.996094 183.347656 61.710938 185.632812 61.710938 188.453125 Z M 0.953125 5.953125 C 0.953125 8.773438 3.234375 11.058594 6.050781 11.058594 C 8.863281 11.058594 11.144531 8.773438 11.144531 5.953125 C 11.144531 3.136719 8.863281 0.851562 6.050781 0.851562 C 3.234375 0.851562 0.953125 3.136719 0.953125 5.953125 Z M 31.332031 5.953125 C 31.332031 8.773438 33.613281 11.058594 36.429688 11.058594 C 39.242188 11.058594 41.527344 8.773438 41.527344 5.953125 C 41.527344 3.136719 39.242188 0.851562 36.429688 0.851562 C 33.613281 0.851562 31.332031 3.136719 31.332031 5.953125 Z M 61.710938 5.953125 C 61.710938 8.773438 63.996094 11.058594 66.808594 11.058594 C 69.625 11.058594 71.90625 8.773438 71.90625 5.953125 C 71.90625 3.136719 69.625 0.851562 66.808594 0.851562 C 63.996094 0.851562 61.710938 3.136719 61.710938 5.953125 Z M 0.953125 36.371094 C 0.953125 39.1875 3.234375 41.472656 6.050781 41.472656 C 8.863281 41.472656 11.144531 39.1875 11.144531 36.371094 C 11.144531 33.550781 8.863281 31.265625 6.050781 31.265625 C 3.234375 31.265625 0.953125 33.550781 0.953125 36.371094 Z M 31.332031 36.371094 C 31.332031 39.1875 33.613281 41.472656 36.429688 41.472656 C 39.242188 41.472656 41.527344 39.1875 41.527344 36.371094 C 41.527344 33.550781 39.242188 31.265625 36.429688 31.265625 C 33.613281 31.265625 31.332031 33.550781 31.332031 36.371094 Z M 121.835938 127.617188 C 121.835938 130.4375 124.117188 132.722656 126.933594 132.722656 C 129.746094 132.722656 132.03125 130.4375 132.03125 127.617188 C 132.03125 124.800781 129.746094 122.515625 126.933594 122.515625 C 124.117188 122.515625 121.835938 124.800781 121.835938 127.617188 Z M 121.835938 97.203125 C 121.835938 100.019531 124.117188 102.304688 126.933594 102.304688 C 129.746094 102.304688 132.03125 100.019531 132.03125 97.203125 C 132.03125 94.382812 129.746094 92.097656 126.933594 92.097656 C 124.117188 92.097656 121.835938 94.382812 121.835938 97.203125 Z M 121.835938 158.035156 C 121.835938 160.855469 124.117188 163.136719 126.933594 163.136719 C 129.746094 163.136719 132.03125 160.855469 132.03125 158.035156 C 132.03125 155.21875 129.746094 152.933594 126.933594 152.933594 C 124.117188 152.933594 121.835938 155.21875 121.835938 158.035156 Z M 152.214844 97.203125 C 152.214844 100.019531 154.5 102.304688 157.3125 102.304688 C 160.128906 102.304688 162.410156 100.019531 162.410156 97.203125 C 162.410156 94.382812 160.128906 92.097656 157.3125 92.097656 C 154.5 92.097656 152.214844 94.382812 152.214844 97.203125 Z M 91.457031 127.617188 C 91.457031 130.4375 93.738281 132.722656 96.554688 132.722656 C 99.367188 132.722656 101.648438 130.4375 101.648438 127.617188 C 101.648438 124.800781 99.367188 122.515625 96.554688 122.515625 C 93.738281 122.515625 91.457031 124.800781 91.457031 127.617188 Z M 91.457031 158.035156 C 91.457031 160.855469 93.738281 163.136719 96.554688 163.136719 C 99.367188 163.136719 101.648438 160.855469 101.648438 158.035156 C 101.648438 155.21875 99.367188 152.933594 96.554688 152.933594 C 93.738281 152.933594 91.457031 155.21875 91.457031 158.035156 Z M 152.214844 127.617188 C 152.214844 130.4375 154.5 132.722656 157.3125 132.722656 C 160.128906 132.722656 162.410156 130.4375 162.410156 127.617188 C 162.410156 124.800781 160.128906 122.515625 157.3125 122.515625 C 154.5 122.515625 152.214844 124.800781 152.214844 127.617188 Z M 91.457031 66.785156 C 91.457031 69.605469 93.738281 71.890625 96.554688 71.890625 C 99.367188 71.890625 101.648438 69.605469 101.648438 66.785156 C 101.648438 63.96875 99.367188 61.683594 96.554688 61.683594 C 93.738281 61.683594 91.457031 63.96875 91.457031 66.785156 Z M 91.457031 97.203125 C 91.457031 100.019531 93.738281 102.304688 96.554688 102.304688 C 99.367188 102.304688 101.648438 100.019531 101.648438 97.203125 C 101.648438 94.382812 99.367188 92.097656 96.554688 92.097656 C 93.738281 92.097656 91.457031 94.382812 91.457031 97.203125 Z M 152.214844 66.785156 C 152.214844 69.605469 154.5 71.890625 157.3125 71.890625 C 160.128906 71.890625 162.410156 69.605469 162.410156 66.785156 C 162.410156 63.96875 160.128906 61.683594 157.3125 61.683594 C 154.5 61.683594 152.214844 63.96875 152.214844 66.785156 Z M 121.835938 66.785156 C 121.835938 69.605469 124.117188 71.890625 126.933594 71.890625 C 129.746094 71.890625 132.03125 69.605469 132.03125 66.785156 C 132.03125 63.96875 129.746094 61.683594 126.933594 61.683594 C 124.117188 61.683594 121.835938 63.96875 121.835938 66.785156 Z M 152.214844 158.035156 C 152.214844 160.855469 154.5 163.136719 157.3125 163.136719 C 160.128906 163.136719 162.410156 160.855469 162.410156 158.035156 C 162.410156 155.21875 160.128906 152.933594 157.3125 152.933594 C 154.5 152.933594 152.214844 155.21875 152.214844 158.035156 Z M 152.214844 36.371094 C 152.214844 39.1875 154.5 41.472656 157.3125 41.472656 C 160.128906 41.472656 162.410156 39.1875 162.410156 36.371094 C 162.410156 33.550781 160.128906 31.265625 157.3125 31.265625 C 154.5 31.265625 152.214844 33.550781 152.214844 36.371094 Z M 121.835938 188.453125 C 121.835938 191.269531 124.117188 193.554688 126.933594 193.554688 C 129.746094 193.554688 132.03125 191.269531 132.03125 188.453125 C 132.03125 185.632812 129.746094 183.347656 126.933594 183.347656 C 124.117188 183.347656 121.835938 185.632812 121.835938 188.453125 Z M 91.457031 188.453125 C 91.457031 191.269531 93.738281 193.554688 96.554688 193.554688 C 99.367188 193.554688 101.648438 191.269531 101.648438 188.453125 C 101.648438 185.632812 99.367188 183.347656 96.554688 183.347656 C 93.738281 183.347656 91.457031 185.632812 91.457031 188.453125 Z M 152.214844 188.453125 C 152.214844 191.269531 154.5 193.554688 157.3125 193.554688 C 160.128906 193.554688 162.410156 191.269531 162.410156 188.453125 C 162.410156 185.632812 160.128906 183.347656 157.3125 183.347656 C 154.5 183.347656 152.214844 185.632812 152.214844 188.453125 Z M 91.457031 5.953125 C 91.457031 8.773438 93.738281 11.058594 96.554688 11.058594 C 99.367188 11.058594 101.648438 8.773438 101.648438 5.953125 C 101.648438 3.136719 99.367188 0.851562 96.554688 0.851562 C 93.738281 0.851562 91.457031 3.136719 91.457031 5.953125 Z M 121.835938 5.953125 C 121.835938 8.773438 124.117188 11.058594 126.933594 11.058594 C 129.746094 11.058594 132.03125 8.773438 132.03125 5.953125 C 132.03125 3.136719 129.746094 0.851562 126.933594 0.851562 C 124.117188 0.851562 121.835938 3.136719 121.835938 5.953125 Z M 152.214844 5.953125 C 152.214844 8.773438 154.5 11.058594 157.3125 11.058594 C 160.128906 11.058594 162.410156 8.773438 162.410156 5.953125 C 162.410156 3.136719 160.128906 0.851562 157.3125 0.851562 C 154.5 0.851562 152.214844 3.136719 152.214844 5.953125 Z M 91.457031 36.371094 C 91.457031 39.1875 93.738281 41.472656 96.554688 41.472656 C 99.367188 41.472656 101.648438 39.1875 101.648438 36.371094 C 101.648438 33.550781 99.367188 31.265625 96.554688 31.265625 C 93.738281 31.265625 91.457031 33.550781 91.457031 36.371094 Z M 121.835938 36.371094 C 121.835938 39.1875 124.117188 41.472656 126.933594 41.472656 C 129.746094 41.472656 132.03125 39.1875 132.03125 36.371094 C 132.03125 33.550781 129.746094 31.265625 126.933594 31.265625 C 124.117188 31.265625 121.835938 33.550781 121.835938 36.371094 Z M 212.609375 127.617188 C 212.609375 130.4375 214.890625 132.722656 217.707031 132.722656 C 220.523438 132.722656 222.804688 130.4375 222.804688 127.617188 C 222.804688 124.800781 220.523438 122.515625 217.707031 122.515625 C 214.890625 122.515625 212.609375 124.800781 212.609375 127.617188 Z M 212.609375 97.203125 C 212.609375 100.019531 214.890625 102.304688 217.707031 102.304688 C 220.523438 102.304688 222.804688 100.019531 222.804688 97.203125 C 222.804688 94.382812 220.523438 92.097656 217.707031 92.097656 C 214.890625 92.097656 212.609375 94.382812 212.609375 97.203125 Z M 212.609375 158.035156 C 212.609375 160.855469 214.890625 163.136719 217.707031 163.136719 C 220.523438 163.136719 222.804688 160.855469 222.804688 158.035156 C 222.804688 155.21875 220.523438 152.933594 217.707031 152.933594 C 214.890625 152.933594 212.609375 155.21875 212.609375 158.035156 Z M 242.988281 97.203125 C 242.988281 100.019531 245.273438 102.304688 248.085938 102.304688 C 250.902344 102.304688 253.183594 100.019531 253.183594 97.203125 C 253.183594 94.382812 250.902344 92.097656 248.085938 92.097656 C 245.273438 92.097656 242.988281 94.382812 242.988281 97.203125 Z M 182.230469 127.617188 C 182.230469 130.4375 184.511719 132.722656 187.328125 132.722656 C 190.140625 132.722656 192.425781 130.4375 192.425781 127.617188 C 192.425781 124.800781 190.140625 122.515625 187.328125 122.515625 C 184.511719 122.515625 182.230469 124.800781 182.230469 127.617188 Z M 182.230469 158.035156 C 182.230469 160.855469 184.511719 163.136719 187.328125 163.136719 C 190.140625 163.136719 192.425781 160.855469 192.425781 158.035156 C 192.425781 155.21875 190.140625 152.933594 187.328125 152.933594 C 184.511719 152.933594 182.230469 155.21875 182.230469 158.035156 Z M 242.988281 127.617188 C 242.988281 130.4375 245.273438 132.722656 248.085938 132.722656 C 250.902344 132.722656 253.183594 130.4375 253.183594 127.617188 C 253.183594 124.800781 250.902344 122.515625 248.085938 122.515625 C 245.273438 122.515625 242.988281 124.800781 242.988281 127.617188 Z M 182.230469 66.785156 C 182.230469 69.605469 184.511719 71.890625 187.328125 71.890625 C 190.140625 71.890625 192.425781 69.605469 192.425781 66.785156 C 192.425781 63.96875 190.140625 61.683594 187.328125 61.683594 C 184.511719 61.683594 182.230469 63.96875 182.230469 66.785156 Z M 182.230469 97.203125 C 182.230469 100.019531 184.511719 102.304688 187.328125 102.304688 C 190.140625 102.304688 192.425781 100.019531 192.425781 97.203125 C 192.425781 94.382812 190.140625 92.097656 187.328125 92.097656 C 184.511719 92.097656 182.230469 94.382812 182.230469 97.203125 Z M 242.988281 66.785156 C 242.988281 69.605469 245.273438 71.890625 248.085938 71.890625 C 250.902344 71.890625 253.183594 69.605469 253.183594 66.785156 C 253.183594 63.96875 250.902344 61.683594 248.085938 61.683594 C 245.273438 61.683594 242.988281 63.96875 242.988281 66.785156 Z M 212.609375 66.785156 C 212.609375 69.605469 214.890625 71.890625 217.707031 71.890625 C 220.523438 71.890625 222.804688 69.605469 222.804688 66.785156 C 222.804688 63.96875 220.523438 61.683594 217.707031 61.683594 C 214.890625 61.683594 212.609375 63.96875 212.609375 66.785156 Z M 242.988281 158.035156 C 242.988281 160.855469 245.273438 163.136719 248.085938 163.136719 C 250.902344 163.136719 253.183594 160.855469 253.183594 158.035156 C 253.183594 155.21875 250.902344 152.933594 248.085938 152.933594 C 245.273438 152.933594 242.988281 155.21875 242.988281 158.035156 Z M 242.988281 36.371094 C 242.988281 39.1875 245.273438 41.472656 248.085938 41.472656 C 250.902344 41.472656 253.183594 39.1875 253.183594 36.371094 C 253.183594 33.550781 250.902344 31.265625 248.085938 31.265625 C 245.273438 31.265625 242.988281 33.550781 242.988281 36.371094 Z M 212.609375 188.453125 C 212.609375 191.269531 214.890625 193.554688 217.707031 193.554688 C 220.523438 193.554688 222.804688 191.269531 222.804688 188.453125 C 222.804688 185.632812 220.523438 183.347656 217.707031 183.347656 C 214.890625 183.347656 212.609375 185.632812 212.609375 188.453125 Z M 182.230469 188.453125 C 182.230469 191.269531 184.511719 193.554688 187.328125 193.554688 C 190.140625 193.554688 192.425781 191.269531 192.425781 188.453125 C 192.425781 185.632812 190.140625 183.347656 187.328125 183.347656 C 184.511719 183.347656 182.230469 185.632812 182.230469 188.453125 Z M 242.988281 188.453125 C 242.988281 191.269531 245.273438 193.554688 248.085938 193.554688 C 250.902344 193.554688 253.183594 191.269531 253.183594 188.453125 C 253.183594 185.632812 250.902344 183.347656 248.085938 183.347656 C 245.273438 183.347656 242.988281 185.632812 242.988281 188.453125 Z M 182.230469 5.953125 C 182.230469 8.773438 184.511719 11.058594 187.328125 11.058594 C 190.140625 11.058594 192.425781 8.773438 192.425781 5.953125 C 192.425781 3.136719 190.140625 0.851562 187.328125 0.851562 C 184.511719 0.851562 182.230469 3.136719 182.230469 5.953125 Z M 212.609375 5.953125 C 212.609375 8.773438 214.890625 11.058594 217.707031 11.058594 C 220.523438 11.058594 222.804688 8.773438 222.804688 5.953125 C 222.804688 3.136719 220.523438 0.851562 217.707031 0.851562 C 214.890625 0.851562 212.609375 3.136719 212.609375 5.953125 Z M 242.988281 5.953125 C 242.988281 8.773438 245.273438 11.058594 248.085938 11.058594 C 250.902344 11.058594 253.183594 8.773438 253.183594 5.953125 C 253.183594 3.136719 250.902344 0.851562 248.085938 0.851562 C 245.273438 0.851562 242.988281 3.136719 242.988281 5.953125 Z M 182.230469 36.371094 C 182.230469 39.1875 184.511719 41.472656 187.328125 41.472656 C 190.140625 41.472656 192.425781 39.1875 192.425781 36.371094 C 192.425781 33.550781 190.140625 31.265625 187.328125 31.265625 C 184.511719 31.265625 182.230469 33.550781 182.230469 36.371094 Z M 212.609375 36.371094 C 212.609375 39.1875 214.890625 41.472656 217.707031 41.472656 C 220.523438 41.472656 222.804688 39.1875 222.804688 36.371094 C 222.804688 33.550781 220.523438 31.265625 217.707031 31.265625 C 214.890625 31.265625 212.609375 33.550781 212.609375 36.371094 Z M 303.113281 127.617188 C 303.113281 130.4375 305.394531 132.722656 308.210938 132.722656 C 311.027344 132.722656 313.308594 130.4375 313.308594 127.617188 C 313.308594 124.800781 311.027344 122.515625 308.210938 122.515625 C 305.394531 122.515625 303.113281 124.800781 303.113281 127.617188 Z M 303.113281 97.203125 C 303.113281 100.019531 305.394531 102.304688 308.210938 102.304688 C 311.027344 102.304688 313.308594 100.019531 313.308594 97.203125 C 313.308594 94.382812 311.027344 92.097656 308.210938 92.097656 C 305.394531 92.097656 303.113281 94.382812 303.113281 97.203125 Z M 303.113281 158.035156 C 303.113281 160.855469 305.394531 163.136719 308.210938 163.136719 C 311.027344 163.136719 313.308594 160.855469 313.308594 158.035156 C 313.308594 155.21875 311.027344 152.933594 308.210938 152.933594 C 305.394531 152.933594 303.113281 155.21875 303.113281 158.035156 Z M 333.492188 97.203125 C 333.492188 100.019531 335.777344 102.304688 338.589844 102.304688 C 341.40625 102.304688 343.6875 100.019531 343.6875 97.203125 C 343.6875 94.382812 341.40625 92.097656 338.589844 92.097656 C 335.777344 92.097656 333.492188 94.382812 333.492188 97.203125 Z M 272.734375 127.617188 C 272.734375 130.4375 275.015625 132.722656 277.832031 132.722656 C 280.644531 132.722656 282.929688 130.4375 282.929688 127.617188 C 282.929688 124.800781 280.644531 122.515625 277.832031 122.515625 C 275.015625 122.515625 272.734375 124.800781 272.734375 127.617188 Z M 272.734375 158.035156 C 272.734375 160.855469 275.015625 163.136719 277.832031 163.136719 C 280.644531 163.136719 282.929688 160.855469 282.929688 158.035156 C 282.929688 155.21875 280.644531 152.933594 277.832031 152.933594 C 275.015625 152.933594 272.734375 155.21875 272.734375 158.035156 Z M 333.492188 127.617188 C 333.492188 130.4375 335.777344 132.722656 338.589844 132.722656 C 341.40625 132.722656 343.6875 130.4375 343.6875 127.617188 C 343.6875 124.800781 341.40625 122.515625 338.589844 122.515625 C 335.777344 122.515625 333.492188 124.800781 333.492188 127.617188 Z M 272.734375 66.785156 C 272.734375 69.605469 275.015625 71.890625 277.832031 71.890625 C 280.644531 71.890625 282.929688 69.605469 282.929688 66.785156 C 282.929688 63.96875 280.644531 61.683594 277.832031 61.683594 C 275.015625 61.683594 272.734375 63.96875 272.734375 66.785156 Z M 272.734375 97.203125 C 272.734375 100.019531 275.015625 102.304688 277.832031 102.304688 C 280.644531 102.304688 282.929688 100.019531 282.929688 97.203125 C 282.929688 94.382812 280.644531 92.097656 277.832031 92.097656 C 275.015625 92.097656 272.734375 94.382812 272.734375 97.203125 Z M 333.492188 66.785156 C 333.492188 69.605469 335.777344 71.890625 338.589844 71.890625 C 341.40625 71.890625 343.6875 69.605469 343.6875 66.785156 C 343.6875 63.96875 341.40625 61.683594 338.589844 61.683594 C 335.777344 61.683594 333.492188 63.96875 333.492188 66.785156 Z M 303.113281 66.785156 C 303.113281 69.605469 305.394531 71.890625 308.210938 71.890625 C 311.027344 71.890625 313.308594 69.605469 313.308594 66.785156 C 313.308594 63.96875 311.027344 61.683594 308.210938 61.683594 C 305.394531 61.683594 303.113281 63.96875 303.113281 66.785156 Z M 333.492188 158.035156 C 333.492188 160.855469 335.777344 163.136719 338.589844 163.136719 C 341.40625 163.136719 343.6875 160.855469 343.6875 158.035156 C 343.6875 155.21875 341.40625 152.933594 338.589844 152.933594 C 335.777344 152.933594 333.492188 155.21875 333.492188 158.035156 Z M 333.492188 36.371094 C 333.492188 39.1875 335.777344 41.472656 338.589844 41.472656 C 341.40625 41.472656 343.6875 39.1875 343.6875 36.371094 C 343.6875 33.550781 341.40625 31.265625 338.589844 31.265625 C 335.777344 31.265625 333.492188 33.550781 333.492188 36.371094 Z M 303.113281 188.453125 C 303.113281 191.269531 305.394531 193.554688 308.210938 193.554688 C 311.027344 193.554688 313.308594 191.269531 313.308594 188.453125 C 313.308594 185.632812 311.027344 183.347656 308.210938 183.347656 C 305.394531 183.347656 303.113281 185.632812 303.113281 188.453125 Z M 272.734375 188.453125 C 272.734375 191.269531 275.015625 193.554688 277.832031 193.554688 C 280.644531 193.554688 282.929688 191.269531 282.929688 188.453125 C 282.929688 185.632812 280.644531 183.347656 277.832031 183.347656 C 275.015625 183.347656 272.734375 185.632812 272.734375 188.453125 Z M 333.492188 188.453125 C 333.492188 191.269531 335.777344 193.554688 338.589844 193.554688 C 341.40625 193.554688 343.6875 191.269531 343.6875 188.453125 C 343.6875 185.632812 341.40625 183.347656 338.589844 183.347656 C 335.777344 183.347656 333.492188 185.632812 333.492188 188.453125 Z M 272.734375 5.953125 C 272.734375 8.773438 275.015625 11.058594 277.832031 11.058594 C 280.644531 11.058594 282.929688 8.773438 282.929688 5.953125 C 282.929688 3.136719 280.644531 0.851562 277.832031 0.851562 C 275.015625 0.851562 272.734375 3.136719 272.734375 5.953125 Z M 303.113281 5.953125 C 303.113281 8.773438 305.394531 11.058594 308.210938 11.058594 C 311.027344 11.058594 313.308594 8.773438 313.308594 5.953125 C 313.308594 3.136719 311.027344 0.851562 308.210938 0.851562 C 305.394531 0.851562 303.113281 3.136719 303.113281 5.953125 Z M 333.492188 5.953125 C 333.492188 8.773438 335.777344 11.058594 338.589844 11.058594 C 341.40625 11.058594 343.6875 8.773438 343.6875 5.953125 C 343.6875 3.136719 341.40625 0.851562 338.589844 0.851562 C 335.777344 0.851562 333.492188 3.136719 333.492188 5.953125 Z M 272.734375 36.371094 C 272.734375 39.1875 275.015625 41.472656 277.832031 41.472656 C 280.644531 41.472656 282.929688 39.1875 282.929688 36.371094 C 282.929688 33.550781 280.644531 31.265625 277.832031 31.265625 C 275.015625 31.265625 272.734375 33.550781 272.734375 36.371094 Z M 303.113281 36.371094 C 303.113281 39.1875 305.394531 41.472656 308.210938 41.472656 C 311.027344 41.472656 313.308594 39.1875 313.308594 36.371094 C 313.308594 33.550781 311.027344 31.265625 308.210938 31.265625 C 305.394531 31.265625 303.113281 33.550781 303.113281 36.371094 Z M 31.332031 341.109375 C 31.332031 343.925781 33.613281 346.210938 36.429688 346.210938 C 39.242188 346.210938 41.527344 343.925781 41.527344 341.109375 C 41.527344 338.289062 39.242188 336.003906 36.429688 336.003906 C 33.613281 336.003906 31.332031 338.289062 31.332031 341.109375 Z M 31.332031 310.691406 C 31.332031 313.511719 33.613281 315.796875 36.429688 315.796875 C 39.242188 315.796875 41.527344 313.511719 41.527344 310.691406 C 41.527344 307.875 39.242188 305.589844 36.429688 305.589844 C 33.613281 305.589844 31.332031 307.875 31.332031 310.691406 Z M 61.710938 310.691406 C 61.710938 313.511719 63.996094 315.796875 66.808594 315.796875 C 69.625 315.796875 71.90625 313.511719 71.90625 310.691406 C 71.90625 307.875 69.625 305.589844 66.808594 305.589844 C 63.996094 305.589844 61.710938 307.875 61.710938 310.691406 Z M 0.953125 341.109375 C 0.953125 343.925781 3.234375 346.210938 6.050781 346.210938 C 8.863281 346.210938 11.144531 343.925781 11.144531 341.109375 C 11.144531 338.289062 8.863281 336.003906 6.050781 336.003906 C 3.234375 336.003906 0.953125 338.289062 0.953125 341.109375 Z M 61.710938 341.109375 C 61.710938 343.925781 63.996094 346.210938 66.808594 346.210938 C 69.625 346.210938 71.90625 343.925781 71.90625 341.109375 C 71.90625 338.289062 69.625 336.003906 66.808594 336.003906 C 63.996094 336.003906 61.710938 338.289062 61.710938 341.109375 Z M 0.953125 280.277344 C 0.953125 283.09375 3.234375 285.378906 6.050781 285.378906 C 8.863281 285.378906 11.144531 283.09375 11.144531 280.277344 C 11.144531 277.457031 8.863281 275.171875 6.050781 275.171875 C 3.234375 275.171875 0.953125 277.457031 0.953125 280.277344 Z M 0.953125 310.691406 C 0.953125 313.511719 3.234375 315.796875 6.050781 315.796875 C 8.863281 315.796875 11.144531 313.511719 11.144531 310.691406 C 11.144531 307.875 8.863281 305.589844 6.050781 305.589844 C 3.234375 305.589844 0.953125 307.875 0.953125 310.691406 Z M 61.710938 280.277344 C 61.710938 283.09375 63.996094 285.378906 66.808594 285.378906 C 69.625 285.378906 71.90625 283.09375 71.90625 280.277344 C 71.90625 277.457031 69.625 275.171875 66.808594 275.171875 C 63.996094 275.171875 61.710938 277.457031 61.710938 280.277344 Z M 31.332031 280.277344 C 31.332031 283.09375 33.613281 285.378906 36.429688 285.378906 C 39.242188 285.378906 41.527344 283.09375 41.527344 280.277344 C 41.527344 277.457031 39.242188 275.171875 36.429688 275.171875 C 33.613281 275.171875 31.332031 277.457031 31.332031 280.277344 Z M 61.710938 249.859375 C 61.710938 252.679688 63.996094 254.960938 66.808594 254.960938 C 69.625 254.960938 71.90625 252.679688 71.90625 249.859375 C 71.90625 247.042969 69.625 244.757812 66.808594 244.757812 C 63.996094 244.757812 61.710938 247.042969 61.710938 249.859375 Z M 0.953125 219.441406 C 0.953125 222.261719 3.234375 224.546875 6.050781 224.546875 C 8.863281 224.546875 11.144531 222.261719 11.144531 219.441406 C 11.144531 216.625 8.863281 214.339844 6.050781 214.339844 C 3.234375 214.339844 0.953125 216.625 0.953125 219.441406 Z M 31.332031 219.441406 C 31.332031 222.261719 33.613281 224.546875 36.429688 224.546875 C 39.242188 224.546875 41.527344 222.261719 41.527344 219.441406 C 41.527344 216.625 39.242188 214.339844 36.429688 214.339844 C 33.613281 214.339844 31.332031 216.625 31.332031 219.441406 Z M 61.710938 219.441406 C 61.710938 222.261719 63.996094 224.546875 66.808594 224.546875 C 69.625 224.546875 71.90625 222.261719 71.90625 219.441406 C 71.90625 216.625 69.625 214.339844 66.808594 214.339844 C 63.996094 214.339844 61.710938 216.625 61.710938 219.441406 Z M 0.953125 249.859375 C 0.953125 252.679688 3.234375 254.960938 6.050781 254.960938 C 8.863281 254.960938 11.144531 252.679688 11.144531 249.859375 C 11.144531 247.042969 8.863281 244.757812 6.050781 244.757812 C 3.234375 244.757812 0.953125 247.042969 0.953125 249.859375 Z M 31.332031 249.859375 C 31.332031 252.679688 33.613281 254.960938 36.429688 254.960938 C 39.242188 254.960938 41.527344 252.679688 41.527344 249.859375 C 41.527344 247.042969 39.242188 244.757812 36.429688 244.757812 C 33.613281 244.757812 31.332031 247.042969 31.332031 249.859375 Z M 121.835938 341.109375 C 121.835938 343.925781 124.117188 346.210938 126.933594 346.210938 C 129.746094 346.210938 132.03125 343.925781 132.03125 341.109375 C 132.03125 338.289062 129.746094 336.003906 126.933594 336.003906 C 124.117188 336.003906 121.835938 338.289062 121.835938 341.109375 Z M 121.835938 310.691406 C 121.835938 313.511719 124.117188 315.796875 126.933594 315.796875 C 129.746094 315.796875 132.03125 313.511719 132.03125 310.691406 C 132.03125 307.875 129.746094 305.589844 126.933594 305.589844 C 124.117188 305.589844 121.835938 307.875 121.835938 310.691406 Z M 152.214844 310.691406 C 152.214844 313.511719 154.5 315.796875 157.3125 315.796875 C 160.128906 315.796875 162.410156 313.511719 162.410156 310.691406 C 162.410156 307.875 160.128906 305.589844 157.3125 305.589844 C 154.5 305.589844 152.214844 307.875 152.214844 310.691406 Z M 91.457031 341.109375 C 91.457031 343.925781 93.738281 346.210938 96.554688 346.210938 C 99.367188 346.210938 101.648438 343.925781 101.648438 341.109375 C 101.648438 338.289062 99.367188 336.003906 96.554688 336.003906 C 93.738281 336.003906 91.457031 338.289062 91.457031 341.109375 Z M 152.214844 341.109375 C 152.214844 343.925781 154.5 346.210938 157.3125 346.210938 C 160.128906 346.210938 162.410156 343.925781 162.410156 341.109375 C 162.410156 338.289062 160.128906 336.003906 157.3125 336.003906 C 154.5 336.003906 152.214844 338.289062 152.214844 341.109375 Z M 91.457031 280.277344 C 91.457031 283.09375 93.738281 285.378906 96.554688 285.378906 C 99.367188 285.378906 101.648438 283.09375 101.648438 280.277344 C 101.648438 277.457031 99.367188 275.171875 96.554688 275.171875 C 93.738281 275.171875 91.457031 277.457031 91.457031 280.277344 Z M 91.457031 310.691406 C 91.457031 313.511719 93.738281 315.796875 96.554688 315.796875 C 99.367188 315.796875 101.648438 313.511719 101.648438 310.691406 C 101.648438 307.875 99.367188 305.589844 96.554688 305.589844 C 93.738281 305.589844 91.457031 307.875 91.457031 310.691406 Z M 152.214844 280.277344 C 152.214844 283.09375 154.5 285.378906 157.3125 285.378906 C 160.128906 285.378906 162.410156 283.09375 162.410156 280.277344 C 162.410156 277.457031 160.128906 275.171875 157.3125 275.171875 C 154.5 275.171875 152.214844 277.457031 152.214844 280.277344 Z M 121.835938 280.277344 C 121.835938 283.09375 124.117188 285.378906 126.933594 285.378906 C 129.746094 285.378906 132.03125 283.09375 132.03125 280.277344 C 132.03125 277.457031 129.746094 275.171875 126.933594 275.171875 C 124.117188 275.171875 121.835938 277.457031 121.835938 280.277344 Z M 152.214844 249.859375 C 152.214844 252.679688 154.5 254.960938 157.3125 254.960938 C 160.128906 254.960938 162.410156 252.679688 162.410156 249.859375 C 162.410156 247.042969 160.128906 244.757812 157.3125 244.757812 C 154.5 244.757812 152.214844 247.042969 152.214844 249.859375 Z M 91.457031 219.441406 C 91.457031 222.261719 93.738281 224.546875 96.554688 224.546875 C 99.367188 224.546875 101.648438 222.261719 101.648438 219.441406 C 101.648438 216.625 99.367188 214.339844 96.554688 214.339844 C 93.738281 214.339844 91.457031 216.625 91.457031 219.441406 Z M 121.835938 219.441406 C 121.835938 222.261719 124.117188 224.546875 126.933594 224.546875 C 129.746094 224.546875 132.03125 222.261719 132.03125 219.441406 C 132.03125 216.625 129.746094 214.339844 126.933594 214.339844 C 124.117188 214.339844 121.835938 216.625 121.835938 219.441406 Z M 152.214844 219.441406 C 152.214844 222.261719 154.5 224.546875 157.3125 224.546875 C 160.128906 224.546875 162.410156 222.261719 162.410156 219.441406 C 162.410156 216.625 160.128906 214.339844 157.3125 214.339844 C 154.5 214.339844 152.214844 216.625 152.214844 219.441406 Z M 91.457031 249.859375 C 91.457031 252.679688 93.738281 254.960938 96.554688 254.960938 C 99.367188 254.960938 101.648438 252.679688 101.648438 249.859375 C 101.648438 247.042969 99.367188 244.757812 96.554688 244.757812 C 93.738281 244.757812 91.457031 247.042969 91.457031 249.859375 Z M 121.835938 249.859375 C 121.835938 252.679688 124.117188 254.960938 126.933594 254.960938 C 129.746094 254.960938 132.03125 252.679688 132.03125 249.859375 C 132.03125 247.042969 129.746094 244.757812 126.933594 244.757812 C 124.117188 244.757812 121.835938 247.042969 121.835938 249.859375 Z M 212.609375 341.109375 C 212.609375 343.925781 214.890625 346.210938 217.707031 346.210938 C 220.523438 346.210938 222.804688 343.925781 222.804688 341.109375 C 222.804688 338.289062 220.523438 336.003906 217.707031 336.003906 C 214.890625 336.003906 212.609375 338.289062 212.609375 341.109375 Z M 212.609375 310.691406 C 212.609375 313.511719 214.890625 315.796875 217.707031 315.796875 C 220.523438 315.796875 222.804688 313.511719 222.804688 310.691406 C 222.804688 307.875 220.523438 305.589844 217.707031 305.589844 C 214.890625 305.589844 212.609375 307.875 212.609375 310.691406 Z M 242.988281 310.691406 C 242.988281 313.511719 245.273438 315.796875 248.085938 315.796875 C 250.902344 315.796875 253.183594 313.511719 253.183594 310.691406 C 253.183594 307.875 250.902344 305.589844 248.085938 305.589844 C 245.273438 305.589844 242.988281 307.875 242.988281 310.691406 Z M 182.230469 341.109375 C 182.230469 343.925781 184.511719 346.210938 187.328125 346.210938 C 190.140625 346.210938 192.425781 343.925781 192.425781 341.109375 C 192.425781 338.289062 190.140625 336.003906 187.328125 336.003906 C 184.511719 336.003906 182.230469 338.289062 182.230469 341.109375 Z M 242.988281 341.109375 C 242.988281 343.925781 245.273438 346.210938 248.085938 346.210938 C 250.902344 346.210938 253.183594 343.925781 253.183594 341.109375 C 253.183594 338.289062 250.902344 336.003906 248.085938 336.003906 C 245.273438 336.003906 242.988281 338.289062 242.988281 341.109375 Z M 182.230469 280.277344 C 182.230469 283.09375 184.511719 285.378906 187.328125 285.378906 C 190.140625 285.378906 192.425781 283.09375 192.425781 280.277344 C 192.425781 277.457031 190.140625 275.171875 187.328125 275.171875 C 184.511719 275.171875 182.230469 277.457031 182.230469 280.277344 Z M 182.230469 310.691406 C 182.230469 313.511719 184.511719 315.796875 187.328125 315.796875 C 190.140625 315.796875 192.425781 313.511719 192.425781 310.691406 C 192.425781 307.875 190.140625 305.589844 187.328125 305.589844 C 184.511719 305.589844 182.230469 307.875 182.230469 310.691406 Z M 242.988281 280.277344 C 242.988281 283.09375 245.273438 285.378906 248.085938 285.378906 C 250.902344 285.378906 253.183594 283.09375 253.183594 280.277344 C 253.183594 277.457031 250.902344 275.171875 248.085938 275.171875 C 245.273438 275.171875 242.988281 277.457031 242.988281 280.277344 Z M 212.609375 280.277344 C 212.609375 283.09375 214.890625 285.378906 217.707031 285.378906 C 220.523438 285.378906 222.804688 283.09375 222.804688 280.277344 C 222.804688 277.457031 220.523438 275.171875 217.707031 275.171875 C 214.890625 275.171875 212.609375 277.457031 212.609375 280.277344 Z M 242.988281 249.859375 C 242.988281 252.679688 245.273438 254.960938 248.085938 254.960938 C 250.902344 254.960938 253.183594 252.679688 253.183594 249.859375 C 253.183594 247.042969 250.902344 244.757812 248.085938 244.757812 C 245.273438 244.757812 242.988281 247.042969 242.988281 249.859375 Z M 182.230469 219.441406 C 182.230469 222.261719 184.511719 224.546875 187.328125 224.546875 C 190.140625 224.546875 192.425781 222.261719 192.425781 219.441406 C 192.425781 216.625 190.140625 214.339844 187.328125 214.339844 C 184.511719 214.339844 182.230469 216.625 182.230469 219.441406 Z M 212.609375 219.441406 C 212.609375 222.261719 214.890625 224.546875 217.707031 224.546875 C 220.523438 224.546875 222.804688 222.261719 222.804688 219.441406 C 222.804688 216.625 220.523438 214.339844 217.707031 214.339844 C 214.890625 214.339844 212.609375 216.625 212.609375 219.441406 Z M 242.988281 219.441406 C 242.988281 222.261719 245.273438 224.546875 248.085938 224.546875 C 250.902344 224.546875 253.183594 222.261719 253.183594 219.441406 C 253.183594 216.625 250.902344 214.339844 248.085938 214.339844 C 245.273438 214.339844 242.988281 216.625 242.988281 219.441406 Z M 182.230469 249.859375 C 182.230469 252.679688 184.511719 254.960938 187.328125 254.960938 C 190.140625 254.960938 192.425781 252.679688 192.425781 249.859375 C 192.425781 247.042969 190.140625 244.757812 187.328125 244.757812 C 184.511719 244.757812 182.230469 247.042969 182.230469 249.859375 Z M 212.609375 249.859375 C 212.609375 252.679688 214.890625 254.960938 217.707031 254.960938 C 220.523438 254.960938 222.804688 252.679688 222.804688 249.859375 C 222.804688 247.042969 220.523438 244.757812 217.707031 244.757812 C 214.890625 244.757812 212.609375 247.042969 212.609375 249.859375 Z M 303.113281 341.109375 C 303.113281 343.925781 305.394531 346.210938 308.210938 346.210938 C 311.027344 346.210938 313.308594 343.925781 313.308594 341.109375 C 313.308594 338.289062 311.027344 336.003906 308.210938 336.003906 C 305.394531 336.003906 303.113281 338.289062 303.113281 341.109375 Z M 303.113281 310.691406 C 303.113281 313.511719 305.394531 315.796875 308.210938 315.796875 C 311.027344 315.796875 313.308594 313.511719 313.308594 310.691406 C 313.308594 307.875 311.027344 305.589844 308.210938 305.589844 C 305.394531 305.589844 303.113281 307.875 303.113281 310.691406 Z M 333.492188 310.691406 C 333.492188 313.511719 335.777344 315.796875 338.589844 315.796875 C 341.40625 315.796875 343.6875 313.511719 343.6875 310.691406 C 343.6875 307.875 341.40625 305.589844 338.589844 305.589844 C 335.777344 305.589844 333.492188 307.875 333.492188 310.691406 Z M 272.734375 341.109375 C 272.734375 343.925781 275.015625 346.210938 277.832031 346.210938 C 280.644531 346.210938 282.929688 343.925781 282.929688 341.109375 C 282.929688 338.289062 280.644531 336.003906 277.832031 336.003906 C 275.015625 336.003906 272.734375 338.289062 272.734375 341.109375 Z M 333.492188 341.109375 C 333.492188 343.925781 335.777344 346.210938 338.589844 346.210938 C 341.40625 346.210938 343.6875 343.925781 343.6875 341.109375 C 343.6875 338.289062 341.40625 336.003906 338.589844 336.003906 C 335.777344 336.003906 333.492188 338.289062 333.492188 341.109375 Z M 272.734375 280.277344 C 272.734375 283.09375 275.015625 285.378906 277.832031 285.378906 C 280.644531 285.378906 282.929688 283.09375 282.929688 280.277344 C 282.929688 277.457031 280.644531 275.171875 277.832031 275.171875 C 275.015625 275.171875 272.734375 277.457031 272.734375 280.277344 Z M 272.734375 310.691406 C 272.734375 313.511719 275.015625 315.796875 277.832031 315.796875 C 280.644531 315.796875 282.929688 313.511719 282.929688 310.691406 C 282.929688 307.875 280.644531 305.589844 277.832031 305.589844 C 275.015625 305.589844 272.734375 307.875 272.734375 310.691406 Z M 333.492188 280.277344 C 333.492188 283.09375 335.777344 285.378906 338.589844 285.378906 C 341.40625 285.378906 343.6875 283.09375 343.6875 280.277344 C 343.6875 277.457031 341.40625 275.171875 338.589844 275.171875 C 335.777344 275.171875 333.492188 277.457031 333.492188 280.277344 Z M 303.113281 280.277344 C 303.113281 283.09375 305.394531 285.378906 308.210938 285.378906 C 311.027344 285.378906 313.308594 283.09375 313.308594 280.277344 C 313.308594 277.457031 311.027344 275.171875 308.210938 275.171875 C 305.394531 275.171875 303.113281 277.457031 303.113281 280.277344 Z M 333.492188 249.859375 C 333.492188 252.679688 335.777344 254.960938 338.589844 254.960938 C 341.40625 254.960938 343.6875 252.679688 343.6875 249.859375 C 343.6875 247.042969 341.40625 244.757812 338.589844 244.757812 C 335.777344 244.757812 333.492188 247.042969 333.492188 249.859375 Z M 272.734375 219.441406 C 272.734375 222.261719 275.015625 224.546875 277.832031 224.546875 C 280.644531 224.546875 282.929688 222.261719 282.929688 219.441406 C 282.929688 216.625 280.644531 214.339844 277.832031 214.339844 C 275.015625 214.339844 272.734375 216.625 272.734375 219.441406 Z M 303.113281 219.441406 C 303.113281 222.261719 305.394531 224.546875 308.210938 224.546875 C 311.027344 224.546875 313.308594 222.261719 313.308594 219.441406 C 313.308594 216.625 311.027344 214.339844 308.210938 214.339844 C 305.394531 214.339844 303.113281 216.625 303.113281 219.441406 Z M 333.492188 219.441406 C 333.492188 222.261719 335.777344 224.546875 338.589844 224.546875 C 341.40625 224.546875 343.6875 222.261719 343.6875 219.441406 C 343.6875 216.625 341.40625 214.339844 338.589844 214.339844 C 335.777344 214.339844 333.492188 216.625 333.492188 219.441406 Z M 272.734375 249.859375 C 272.734375 252.679688 275.015625 254.960938 277.832031 254.960938 C 280.644531 254.960938 282.929688 252.679688 282.929688 249.859375 C 282.929688 247.042969 280.644531 244.757812 277.832031 244.757812 C 275.015625 244.757812 272.734375 247.042969 272.734375 249.859375 Z M 303.113281 249.859375 C 303.113281 252.679688 305.394531 254.960938 308.210938 254.960938 C 311.027344 254.960938 313.308594 252.679688 313.308594 249.859375 C 313.308594 247.042969 311.027344 244.757812 308.210938 244.757812 C 305.394531 244.757812 303.113281 247.042969 303.113281 249.859375 Z M 303.113281 249.859375 " fill-opacity="1" fill-rule="nonzero"/></g></g></g></g></svg>